<?xml version="1.0" encoding="utf-8"?>
<!-- Generator: Adobe Illustrator 27.9.0, SVG Export Plug-In . SVG Version: 6.00 Build 0)  -->
<svg version="1.1" id="Layer_1" xmlns="http://www.w3.org/2000/svg" xmlns:xlink="http://www.w3.org/1999/xlink" x="0px" y="0px"
	 viewBox="0 0 692.94 143.37" style="enable-background:new 0 0 692.94 143.37;" xml:space="preserve">
<style type="text/css">
	.st0{fill:url(#SVGID_1_);}
	.st1{fill:url(#SVGID_00000021810848644128774380000010343830122688414373_);}
	.st2{fill:url(#SVGID_00000116919335787098084650000008950260193459727540_);}
	.st3{fill:url(#SVGID_00000087376654249062725280000001512061676250763696_);}
	.st4{fill:url(#SVGID_00000009568855255439152130000001883281330904098982_);}
	.st5{fill:url(#SVGID_00000082365033546590058080000017887759981546171044_);}
	.st6{fill:url(#SVGID_00000133513525214769445000000017264410484952312215_);}
	.st7{fill:url(#SVGID_00000000200180876452279110000009889999229331594127_);}
	.st8{fill:url(#SVGID_00000013157408251812215860000001981791052566794904_);}
	.st9{fill:url(#SVGID_00000081646324324242166460000017967327239613327239_);}
	.st10{fill:url(#SVGID_00000049941107020681573090000011352612586248677536_);}
	.st11{fill:url(#SVGID_00000023975852712883868740000011329675943906891166_);}
	.st12{fill:url(#SVGID_00000161624693139294858210000005538270085720157875_);}
	.st13{fill:url(#SVGID_00000099653479756926797820000008027674527358907020_);}
	.st14{fill:url(#SVGID_00000097487208426524736820000001439463693739711643_);}
	.st15{fill:url(#SVGID_00000145768211544843545100000013600021614147428541_);}
	.st16{fill:url(#SVGID_00000156549048596293088490000003607637817096595871_);}
	.st17{fill:url(#SVGID_00000155851130387707889800000009392077274600051358_);}
	.st18{fill:url(#SVGID_00000075875609537846672770000015262775758982202247_);}
	.st19{fill:url(#SVGID_00000099654765984018814210000006365772028697675935_);}
	.st20{fill:url(#SVGID_00000127735777170676544730000012963444773572146565_);}
	.st21{fill:#F6921E;}
	.st22{fill:url(#SVGID_00000078748300749885689240000015434968364219532215_);}
	.st23{fill:url(#SVGID_00000028286160936559146740000015617391930254477725_);}
	.st24{fill:url(#SVGID_00000002348471222082881370000004164922054723604357_);}
	.st25{fill:url(#SVGID_00000157301700464875672930000006326706309283100814_);}
	.st26{fill:url(#SVGID_00000065039598761174938190000000037000543943618446_);}
	.st27{enable-background:new    ;}
	.st28{fill:#F28D20;}
</style>
<linearGradient id="SVGID_1_" gradientUnits="userSpaceOnUse" x1="190.17" y1="1009.3" x2="728.91" y2="1009.3" gradientTransform="matrix(1 0 0 1 -11.93 -937.47)">
	<stop  offset="0" style="stop-color:#00ADEE"/>
	<stop  offset="0.81" style="stop-color:#1B75BB"/>
</linearGradient>
<path class="st0" d="M160.48,71.76l5.69-33.23h24c11.19,0,19.53,2.24,25,6.73s8.2,11.37,8.19,20.65c0.01,6.46-1.47,12.84-4.35,18.62
	c-2.91,5.92-7.71,10.83-14.38,14.74c-6.67,3.91-15.24,5.86-25.7,5.86H154.2L160.48,71.76z M181.18,89.05c5.37,0,9.7-1.04,13-3.12
	c3.1-1.85,5.57-4.59,7.07-7.87c1.39-3.1,2.11-6.45,2.11-9.85c0-4.8-1.24-8.29-3.73-10.47c-2.49-2.17-6.41-3.27-11.77-3.27h-5
	l-3.33,17.29l-2.86,17.29L181.18,89.05z"/>
<linearGradient id="SVGID_00000036931938487735118610000014230853829352678579_" gradientUnits="userSpaceOnUse" x1="190.17" y1="1007.465" x2="728.91" y2="1007.465" gradientTransform="matrix(1 0 0 1 -11.93 -937.47)">
	<stop  offset="0" style="stop-color:#00ADEE"/>
	<stop  offset="0.81" style="stop-color:#1B75BB"/>
</linearGradient>
<path style="fill:url(#SVGID_00000036931938487735118610000014230853829352678579_);" d="M227.98,79.16l4.32-25.63
	c2.91,0.78,5.92,1.11,8.93,1c3.14,0.09,6.27-0.25,9.32-1l-4.91,25.65l-4.41,25.93h-18.16L227.98,79.16z M236.37,36.71
	c1.87-1.22,4.66-1.83,8.39-1.83c3.27,0,5.66,0.47,7.16,1.39c1.51,0.93,2.38,2.61,2.26,4.38c-0.03,0.64-0.09,1.28-0.2,1.91
	c-0.31,2.36-1.61,4.48-3.58,5.82c-1.86,1.18-4.66,1.77-8.39,1.77c-3.2,0-5.56-0.44-7.06-1.34c-1.49-0.87-2.37-2.51-2.26-4.23
	c-0.01-0.67,0.05-1.34,0.2-2C233.14,40.21,234.41,38.07,236.37,36.71z"/>
<linearGradient id="SVGID_00000083786651527069368960000017006580521183944365_" gradientUnits="userSpaceOnUse" x1="190.17" y1="1024.4692" x2="728.91" y2="1024.4692" gradientTransform="matrix(1 0 0 1 -11.93 -937.47)">
	<stop  offset="0" style="stop-color:#00ADEE"/>
	<stop  offset="0.81" style="stop-color:#1B75BB"/>
</linearGradient>
<path style="fill:url(#SVGID_00000083786651527069368960000017006580521183944365_);" d="M254.47,117.63
	c-3.53-2.79-5.78-6.87-6.77-12.25l14.82-3.94c0.17,2.25,1.17,4.35,2.8,5.91c1.47,1.25,3.65,1.88,6.52,1.87c3.92,0,6.9-1.17,8.93-3.5
	s3.41-5.73,4.12-10.19l0.29-1.44h-0.29c-2,2.22-4.46,3.99-7.21,5.18c-2.83,1.36-5.93,2.09-9.08,2.12c-5.23,0-9.38-1.57-12.46-4.71
	c-3.08-3.14-4.62-7.89-4.61-14.25c0.08-4.46,0.91-8.88,2.45-13.07c1.65-4.68,4.49-8.86,8.25-12.1c3.85-3.39,8.85-5.08,15-5.09
	c2.99-0.04,5.93,0.73,8.53,2.21c2.34,1.25,4.22,3.2,5.4,5.57h0.19l1.09-6.42h18.25l-6.57,36.5c-2.1,11.53-6.04,19.71-11.82,24.54
	s-12.93,7.25-21.44,7.26C263.47,121.82,258,120.42,254.47,117.63z M272.18,85.79c1.31,1.51,3.25,2.33,5.25,2.2
	c2.3,0.09,4.56-0.68,6.33-2.15c1.64-1.4,2.89-3.21,3.63-5.24c0.71-1.84,1.09-3.79,1.13-5.76c0.08-2.06-0.57-4.08-1.82-5.72
	c-1.36-1.57-3.37-2.41-5.44-2.26c-2.17-0.06-4.3,0.65-6,2c-1.62,1.3-2.88,2.98-3.68,4.9c-0.79,1.87-1.21,3.88-1.22,5.91
	C270.24,81.86,270.88,84.02,272.18,85.79z"/>
<linearGradient id="SVGID_00000112605949563963574530000002092330839814599560_" gradientUnits="userSpaceOnUse" x1="190.17" y1="1016.845" x2="728.91" y2="1016.845" gradientTransform="matrix(1 0 0 1 -11.93 -937.47)">
	<stop  offset="0" style="stop-color:#00ADEE"/>
	<stop  offset="0.81" style="stop-color:#1B75BB"/>
</linearGradient>
<path style="fill:url(#SVGID_00000112605949563963574530000002092330839814599560_);" d="M318.2,100.34
	c-4.48-4.13-6.72-9.84-6.72-17.15c0.05-4.85,1.1-9.64,3.09-14.07c2.14-4.87,5.6-9.05,10-12.05c4.61-3.27,10.52-4.9,17.71-4.9
	c7.71,0,13.82,2.05,18.34,6.15s6.78,9.8,6.77,17.09c-0.04,4.87-1.11,9.69-3.13,14.12c-2.19,4.89-5.68,9.08-10.1,12.11
	c-4.67,3.29-10.59,4.93-17.76,4.94C328.75,106.55,322.69,104.47,318.2,100.34z M332.07,89.63c1.46,1.62,3.56,2.5,5.74,2.4
	c3.42,0.08,6.61-1.75,8.26-4.75c2.01-3.45,3.01-7.4,2.9-11.39c0-2.94-0.74-5.22-2.21-6.81c-1.5-1.62-3.63-2.5-5.84-2.41
	c-3.39-0.08-6.54,1.77-8.14,4.76c-1.98,3.46-2.96,7.4-2.85,11.38C329.78,85.27,330.54,87.7,332.07,89.63z"/>
<linearGradient id="SVGID_00000034810202096468001120000008531120719765898883_" gradientUnits="userSpaceOnUse" x1="190.17" y1="1016.755" x2="728.91" y2="1016.755" gradientTransform="matrix(1 0 0 1 -11.93 -937.47)">
	<stop  offset="0" style="stop-color:#00ADEE"/>
	<stop  offset="0.81" style="stop-color:#1B75BB"/>
</linearGradient>
<path style="fill:url(#SVGID_00000034810202096468001120000008531120719765898883_);" d="M374.42,102.21
	c-4.07-2.64-6.72-6.98-7.21-11.81l15.6-3.75c0.28,1.98,1.2,3.82,2.6,5.24c1.27,1.18,3.55,1.77,6.82,1.77c4.57,0,6.85-1.31,6.86-3.94
	c-0.02-1.28-0.76-2.44-1.91-3c-1.28-0.77-3.58-1.38-6.92-1.83c-5.43-0.89-9.72-2.65-12.85-5.28c-3.14-2.63-4.88-6.57-4.71-10.66
	c-0.06-4.76,2.17-9.26,6-12.1c4-3.2,10.1-4.8,18.3-4.81c6.67,0,12.05,1.28,16.14,3.85c4.04,2.48,6.76,6.64,7.41,11.33l-15.89,4
	c-0.27-2.3-1.02-3.93-2.26-4.89c-1.62-1.08-3.56-1.59-5.5-1.45c-1.51-0.1-3.02,0.22-4.36,0.92c-0.86,0.47-1.41,1.37-1.42,2.35
	c0.08,1.2,0.86,2.24,2,2.64c2.67,1.07,5.45,1.86,8.29,2.35c5.69,1.22,9.81,3.11,12.36,5.67s3.83,6.05,3.83,10.47
	c-0.01,2.9-0.82,5.75-2.36,8.21c-1.57,2.59-4.23,4.74-8,6.44s-8.71,2.57-14.82,2.6C384.64,106.53,378.64,105.09,374.42,102.21z"/>
<linearGradient id="SVGID_00000083802003931848563920000000759806485392502682_" gradientUnits="userSpaceOnUse" x1="190.17" y1="1009.295" x2="728.91" y2="1009.295" gradientTransform="matrix(1 0 0 1 -11.93 -937.47)">
	<stop  offset="0" style="stop-color:#00ADEE"/>
	<stop  offset="0.81" style="stop-color:#1B75BB"/>
</linearGradient>
<path style="fill:url(#SVGID_00000083802003931848563920000000759806485392502682_);" d="M451.29,101.01
	c-5.04-3.65-7.78-8.95-8.22-15.9l16.09-3.93c0.45,3.52,1.75,6.13,3.87,7.82s5.04,2.53,8.76,2.53c3.4,0,5.95-0.56,7.66-1.68
	c1.55-0.89,2.52-2.53,2.55-4.32c-0.01-1.75-0.97-3.35-2.51-4.18c-1.66-1.06-4.62-2.1-8.87-3.12c-6.61-1.54-11.72-3.99-15.31-7.35
	s-5.39-7.89-5.4-13.59c0.04-3.26,0.93-6.46,2.6-9.27c1.74-3.04,4.68-5.62,8.83-7.73s9.56-3.17,16.24-3.17
	c8.57,0,15.11,1.73,19.62,5.19c4.51,3.44,7.34,8.65,7.76,14.31l-17,4.22c-0.09-2.45-1.13-4.76-2.89-6.46
	c-1.77-1.67-4.36-2.51-7.75-2.5c-2.16-0.12-4.3,0.42-6.14,1.54c-1.38,0.86-2.21,2.38-2.2,4c-0.05,1.58,0.73,3.08,2.06,3.94
	c2.22,1.29,4.64,2.2,7.16,2.69c8.11,1.92,13.99,4.53,17.66,7.83c3.63,3.22,5.64,7.87,5.5,12.72c0.03,3.76-0.96,7.46-2.85,10.71
	c-1.9,3.3-5.02,5.99-9.37,8.07s-10.04,3.13-17.07,3.15C463.26,106.53,456.33,104.69,451.29,101.01z"/>
<linearGradient id="SVGID_00000144335868040354227690000010951172875080744868_" gradientUnits="userSpaceOnUse" x1="190.17" y1="1016.845" x2="728.91" y2="1016.845" gradientTransform="matrix(1 0 0 1 -11.93 -937.47)">
	<stop  offset="0" style="stop-color:#00ADEE"/>
	<stop  offset="0.81" style="stop-color:#1B75BB"/>
</linearGradient>
<path style="fill:url(#SVGID_00000144335868040354227690000010951172875080744868_);" d="M512.26,100.34
	c-4.48-4.13-6.72-9.84-6.72-17.15c0.05-4.85,1.1-9.64,3.09-14.07c2.14-4.87,5.61-9.05,10-12.05c4.61-3.27,10.51-4.9,17.71-4.9
	c7.72,0,13.84,2.05,18.35,6.15s6.77,9.8,6.77,17.09c-0.05,4.87-1.11,9.68-3.13,14.12c-2.19,4.89-5.69,9.08-10.11,12.11
	c-4.67,3.29-10.59,4.93-17.76,4.94C522.81,106.55,516.75,104.47,512.26,100.34z M526.07,89.63c1.45,1.62,3.56,2.5,5.74,2.4
	c3.43,0.09,6.63-1.74,8.29-4.75c2.03-3.45,3.06-7.39,2.97-11.39c0-2.94-0.73-5.22-2.2-6.81c-1.5-1.62-3.63-2.5-5.84-2.41
	c-3.4-0.08-6.55,1.76-8.15,4.76c-1.97,3.46-2.95,7.4-2.84,11.38C523.99,85.75,524.69,88.03,526.07,89.63z"/>
<linearGradient id="SVGID_00000055691209081882210930000003871050696109686447_" gradientUnits="userSpaceOnUse" x1="190.17" y1="1009.28" x2="728.91" y2="1009.28" gradientTransform="matrix(1 0 0 1 -11.93 -937.47)">
	<stop  offset="0" style="stop-color:#00ADEE"/>
	<stop  offset="0.81" style="stop-color:#1B75BB"/>
</linearGradient>
<path style="fill:url(#SVGID_00000055691209081882210930000003871050696109686447_);" d="M568.53,71.19l5.69-32.66h18.15
	l-6.08,32.66l-5.89,33.9h-18.15L568.53,71.19z"/>
<linearGradient id="SVGID_00000096754414025953106440000011603203537485023406_" gradientUnits="userSpaceOnUse" x1="190.17" y1="1016.8448" x2="728.91" y2="1016.8448" gradientTransform="matrix(1 0 0 1 -11.93 -937.47)">
	<stop  offset="0" style="stop-color:#00ADEE"/>
	<stop  offset="0.81" style="stop-color:#1B75BB"/>
</linearGradient>
<path style="fill:url(#SVGID_00000096754414025953106440000011603203537485023406_);" d="M594.43,101.68
	c-2.94-3.23-4.41-7.92-4.41-14.07c0.06-5.25,0.92-10.47,2.55-15.46c1.61-5.29,4.47-10.12,8.34-14.07c3.86-3.94,8.86-5.91,15-5.91
	c3.04-0.02,6.03,0.74,8.68,2.21c2.42,1.23,4.37,3.22,5.55,5.67h0.19l1.09-6.52h18.25l-4.9,25.84l-4.32,25.74h-18.38l1.18-6.53h-0.18
	c-4,4.97-10,7.9-16.38,8C601.46,106.53,597.38,104.92,594.43,101.68z M615.82,91.84c2.48,0.06,4.86-0.96,6.53-2.79
	c1.74-1.87,3.01-4.13,3.72-6.58c0.7-2.19,1.08-4.47,1.13-6.77c0-5.89-2.35-8.83-7.06-8.84c-2.43-0.07-4.78,0.87-6.48,2.6
	c-1.72,1.77-2.98,3.93-3.68,6.29c-0.73,2.35-1.11,4.79-1.12,7.25C608.86,88.89,611.18,91.84,615.82,91.84z"/>
<linearGradient id="SVGID_00000038406335184327029180000004332518769589660089_" gradientUnits="userSpaceOnUse" x1="190.17" y1="1016.1279" x2="728.91" y2="1016.1279" gradientTransform="matrix(1 0 0 1 -11.93 -937.47)">
	<stop  offset="0" style="stop-color:#00ADEE"/>
	<stop  offset="0.81" style="stop-color:#1B75BB"/>
</linearGradient>
<path style="fill:url(#SVGID_00000038406335184327029180000004332518769589660089_);" d="M653.2,80.53l4.52-27h18.25l-1.67,7.69
	h0.19c1.61-2.6,3.79-4.8,6.38-6.44c3.05-1.83,6.56-2.73,10.11-2.59c0.67-0.02,1.34,0.05,2,0.19l-3.18,17.65
	c-1.46-0.28-2.93-0.44-4.41-0.48c-8.38,0-13.32,4.2-14.82,12.59l-0.59,3l-3.34,20h-18.15L653.2,80.53z"/>
<linearGradient id="SVGID_00000150073650712445066980000009903731430533777852_" gradientUnits="userSpaceOnUse" x1="200.71" y1="976" x2="200.71" y2="1042.6" gradientTransform="matrix(1 0 0 1 -11.93 -937.47)">
	<stop  offset="0" style="stop-color:#00ADEE"/>
	<stop  offset="0.81" style="stop-color:#1B75BB"/>
</linearGradient>
<path style="fill:url(#SVGID_00000150073650712445066980000009903731430533777852_);" d="M160.48,71.76l5.69-33.23h24
	c11.19,0,19.53,2.24,25,6.73s8.2,11.37,8.19,20.65c0.01,6.46-1.47,12.84-4.35,18.62c-2.91,5.92-7.71,10.83-14.38,14.74
	c-6.67,3.91-15.24,5.86-25.7,5.86H154.2L160.48,71.76z M181.18,89.05c5.37,0,9.7-1.04,13-3.12c3.1-1.85,5.57-4.59,7.07-7.87
	c1.39-3.1,2.11-6.45,2.11-9.85c0-4.8-1.24-8.29-3.73-10.47c-2.49-2.17-6.41-3.27-11.77-3.27h-5l-3.33,17.29l-2.86,17.29
	L181.18,89.05z"/>
<linearGradient id="SVGID_00000116205976462717898730000008360724758721240210_" gradientUnits="userSpaceOnUse" x1="250.5605" y1="972.35" x2="250.5605" y2="1042.58" gradientTransform="matrix(1 0 0 1 -11.93 -937.47)">
	<stop  offset="0" style="stop-color:#00ADEE"/>
	<stop  offset="0.81" style="stop-color:#1B75BB"/>
</linearGradient>
<path style="fill:url(#SVGID_00000116205976462717898730000008360724758721240210_);" d="M227.98,79.16l4.32-25.63
	c2.91,0.78,5.92,1.11,8.93,1c3.14,0.09,6.27-0.25,9.32-1l-4.91,25.65l-4.41,25.93h-18.16L227.98,79.16z M236.37,36.71
	c1.87-1.22,4.66-1.83,8.39-1.83c3.27,0,5.66,0.47,7.16,1.39c1.51,0.93,2.38,2.61,2.26,4.38c-0.03,0.64-0.09,1.28-0.2,1.91
	c-0.31,2.36-1.61,4.48-3.58,5.82c-1.86,1.18-4.66,1.77-8.39,1.77c-3.2,0-5.56-0.44-7.06-1.34c-1.49-0.87-2.37-2.51-2.26-4.23
	c-0.01-0.67,0.05-1.34,0.2-2C233.14,40.21,234.41,38.07,236.37,36.71z"/>
<linearGradient id="SVGID_00000023966396185942820470000002926300955823122824_" gradientUnits="userSpaceOnUse" x1="291.125" y1="989.6385" x2="291.125" y2="1059.3" gradientTransform="matrix(1 0 0 1 -11.93 -937.47)">
	<stop  offset="0" style="stop-color:#00ADEE"/>
	<stop  offset="0.81" style="stop-color:#1B75BB"/>
</linearGradient>
<path style="fill:url(#SVGID_00000023966396185942820470000002926300955823122824_);" d="M254.47,117.63
	c-3.53-2.79-5.78-6.87-6.77-12.25l14.82-3.94c0.17,2.25,1.17,4.35,2.8,5.91c1.47,1.25,3.65,1.88,6.52,1.87c3.92,0,6.9-1.17,8.93-3.5
	s3.41-5.73,4.12-10.19l0.29-1.44h-0.29c-2,2.22-4.46,3.99-7.21,5.18c-2.83,1.36-5.93,2.09-9.08,2.12c-5.23,0-9.38-1.57-12.46-4.71
	c-3.08-3.14-4.62-7.89-4.61-14.25c0.08-4.46,0.91-8.88,2.45-13.07c1.65-4.68,4.49-8.86,8.25-12.1c3.85-3.39,8.85-5.08,15-5.09
	c2.99-0.04,5.93,0.73,8.53,2.21c2.34,1.25,4.22,3.2,5.4,5.57h0.19l1.09-6.42h18.25l-6.57,36.5c-2.1,11.53-6.04,19.71-11.82,24.54
	s-12.93,7.25-21.44,7.26C263.47,121.82,258,120.42,254.47,117.63z M272.18,85.79c1.31,1.51,3.25,2.33,5.25,2.2
	c2.3,0.09,4.56-0.68,6.33-2.15c1.64-1.4,2.89-3.21,3.63-5.24c0.71-1.84,1.09-3.79,1.13-5.76c0.08-2.06-0.57-4.08-1.82-5.72
	c-1.36-1.57-3.37-2.41-5.44-2.26c-2.17-0.06-4.3,0.65-6,2c-1.62,1.3-2.88,2.98-3.68,4.9c-0.79,1.87-1.21,3.88-1.22,5.91
	C270.24,81.86,270.88,84.02,272.18,85.79z"/>
<linearGradient id="SVGID_00000003803180588440492990000016564941720709074856_" gradientUnits="userSpaceOnUse" x1="351.365" y1="989.64" x2="351.365" y2="1044.05" gradientTransform="matrix(1 0 0 1 -11.93 -937.47)">
	<stop  offset="0" style="stop-color:#00ADEE"/>
	<stop  offset="0.81" style="stop-color:#1B75BB"/>
</linearGradient>
<path style="fill:url(#SVGID_00000003803180588440492990000016564941720709074856_);" d="M318.2,100.34
	c-4.48-4.13-6.72-9.84-6.72-17.15c0.05-4.85,1.1-9.64,3.09-14.07c2.14-4.87,5.6-9.05,10-12.05c4.61-3.27,10.52-4.9,17.71-4.9
	c7.71,0,13.82,2.05,18.34,6.15s6.78,9.8,6.77,17.09c-0.04,4.87-1.11,9.69-3.13,14.12c-2.19,4.89-5.68,9.08-10.1,12.11
	c-4.67,3.29-10.59,4.93-17.76,4.94C328.75,106.55,322.69,104.47,318.2,100.34z M332.07,89.63c1.46,1.62,3.56,2.5,5.74,2.4
	c3.42,0.08,6.61-1.75,8.26-4.75c2.01-3.45,3.01-7.4,2.9-11.39c0-2.94-0.74-5.22-2.21-6.81c-1.5-1.62-3.63-2.5-5.84-2.41
	c-3.39-0.08-6.54,1.77-8.14,4.76c-1.98,3.46-2.96,7.4-2.85,11.38C329.78,85.27,330.54,87.7,332.07,89.63z"/>
<linearGradient id="SVGID_00000178203225209927243200000003555934588853234049_" gradientUnits="userSpaceOnUse" x1="379.14" y1="1016.755" x2="432.48" y2="1016.755" gradientTransform="matrix(1 0 0 1 -11.93 -937.47)">
	<stop  offset="0" style="stop-color:#00ADEE"/>
	<stop  offset="0.81" style="stop-color:#1B75BB"/>
</linearGradient>
<path style="fill:url(#SVGID_00000178203225209927243200000003555934588853234049_);" d="M374.42,102.21
	c-4.07-2.64-6.72-6.98-7.21-11.81l15.6-3.75c0.28,1.98,1.2,3.82,2.6,5.24c1.27,1.18,3.55,1.77,6.82,1.77c4.57,0,6.85-1.31,6.86-3.94
	c-0.02-1.28-0.76-2.44-1.91-3c-1.28-0.77-3.58-1.38-6.92-1.83c-5.43-0.89-9.72-2.65-12.85-5.28c-3.14-2.63-4.88-6.57-4.71-10.66
	c-0.06-4.76,2.17-9.26,6-12.1c4-3.2,10.1-4.8,18.3-4.81c6.67,0,12.05,1.28,16.14,3.85c4.04,2.48,6.76,6.64,7.41,11.33l-15.89,4
	c-0.27-2.3-1.02-3.93-2.26-4.89c-1.62-1.08-3.56-1.59-5.5-1.45c-1.51-0.1-3.02,0.22-4.36,0.92c-0.86,0.47-1.41,1.37-1.42,2.35
	c0.08,1.2,0.86,2.24,2,2.64c2.67,1.07,5.45,1.86,8.29,2.35c5.69,1.22,9.81,3.11,12.36,5.67s3.83,6.05,3.83,10.47
	c-0.01,2.9-0.82,5.75-2.36,8.21c-1.57,2.59-4.23,4.74-8,6.44s-8.71,2.57-14.82,2.6C384.64,106.53,378.64,105.09,374.42,102.21z"/>
<linearGradient id="SVGID_00000143575438063701531630000002948001276799137719_" gradientUnits="userSpaceOnUse" x1="485.9353" y1="1009.6701" x2="485.4853" y2="1071.5701" gradientTransform="matrix(1 0 0 1 -11.93 -937.47)">
	<stop  offset="0" style="stop-color:#00ADEE"/>
	<stop  offset="0.81" style="stop-color:#1B75BB"/>
</linearGradient>
<path style="fill:url(#SVGID_00000143575438063701531630000002948001276799137719_);" d="M451.29,101.01
	c-5.04-3.65-7.78-8.95-8.22-15.9l16.09-3.93c0.45,3.52,1.75,6.13,3.87,7.82s5.04,2.53,8.76,2.53c3.4,0,5.95-0.56,7.66-1.68
	c1.55-0.89,2.52-2.53,2.55-4.32c-0.01-1.75-0.97-3.35-2.51-4.18c-1.66-1.06-4.62-2.1-8.87-3.12c-6.61-1.54-11.72-3.99-15.31-7.35
	s-5.39-7.89-5.4-13.59c0.04-3.26,0.93-6.46,2.6-9.27c1.74-3.04,4.68-5.62,8.83-7.73s9.56-3.17,16.24-3.17
	c8.57,0,15.11,1.73,19.62,5.19c4.51,3.44,7.34,8.65,7.76,14.31l-17,4.22c-0.09-2.45-1.13-4.76-2.89-6.46
	c-1.77-1.67-4.36-2.51-7.75-2.5c-2.16-0.12-4.3,0.42-6.14,1.54c-1.38,0.86-2.21,2.38-2.2,4c-0.05,1.58,0.73,3.08,2.06,3.94
	c2.22,1.29,4.64,2.2,7.16,2.69c8.11,1.92,13.99,4.53,17.66,7.83c3.63,3.22,5.64,7.87,5.5,12.72c0.03,3.76-0.96,7.46-2.85,10.71
	c-1.9,3.3-5.02,5.99-9.37,8.07s-10.04,3.13-17.07,3.15C463.26,106.53,456.33,104.69,451.29,101.01z"/>
<linearGradient id="SVGID_00000074428000221849527400000004145645008227808940_" gradientUnits="userSpaceOnUse" x1="545.3359" y1="1010.1901" x2="546.1359" y2="1066.1101" gradientTransform="matrix(1 0 0 1 -11.93 -937.47)">
	<stop  offset="0" style="stop-color:#00ADEE"/>
	<stop  offset="1" style="stop-color:#1B75BB"/>
</linearGradient>
<path style="fill:url(#SVGID_00000074428000221849527400000004145645008227808940_);" d="M512.26,100.34
	c-4.48-4.13-6.72-9.84-6.72-17.15c0.05-4.85,1.1-9.64,3.09-14.07c2.14-4.87,5.61-9.05,10-12.05c4.61-3.27,10.51-4.9,17.71-4.9
	c7.72,0,13.84,2.05,18.35,6.15s6.77,9.8,6.77,17.09c-0.05,4.87-1.11,9.68-3.13,14.12c-2.19,4.89-5.69,9.08-10.11,12.11
	c-4.67,3.29-10.59,4.93-17.76,4.94C522.81,106.55,516.75,104.47,512.26,100.34z M526.07,89.63c1.45,1.62,3.56,2.5,5.74,2.4
	c3.43,0.09,6.63-1.74,8.29-4.75c2.03-3.45,3.06-7.39,2.97-11.39c0-2.94-0.73-5.22-2.2-6.81c-1.5-1.62-3.63-2.5-5.84-2.41
	c-3.4-0.08-6.55,1.76-8.15,4.76c-1.97,3.46-2.95,7.4-2.84,11.38C523.99,85.75,524.69,88.03,526.07,89.63z"/>
<linearGradient id="SVGID_00000143581605430053414650000011204245631356069002_" gradientUnits="userSpaceOnUse" x1="589.2401" y1="976" x2="589.2401" y2="1042.5601" gradientTransform="matrix(1 0 0 1 -11.93 -937.47)">
	<stop  offset="0" style="stop-color:#00ADEE"/>
	<stop  offset="0.81" style="stop-color:#1B75BB"/>
</linearGradient>
<path style="fill:url(#SVGID_00000143581605430053414650000011204245631356069002_);" d="M568.53,71.19l5.69-32.66h18.15
	l-6.08,32.66l-5.89,33.9h-18.15L568.53,71.19z"/>
<linearGradient id="SVGID_00000128447315185209156170000002403213718301999028_" gradientUnits="userSpaceOnUse" x1="631.775" y1="989.6396" x2="631.775" y2="1044.05" gradientTransform="matrix(1 0 0 1 -11.93 -937.47)">
	<stop  offset="0" style="stop-color:#00ADEE"/>
	<stop  offset="1" style="stop-color:#1B75BB"/>
</linearGradient>
<path style="fill:url(#SVGID_00000128447315185209156170000002403213718301999028_);" d="M594.43,101.68
	c-2.94-3.23-4.41-7.92-4.41-14.07c0.06-5.25,0.92-10.47,2.55-15.46c1.61-5.29,4.47-10.12,8.34-14.07c3.86-3.94,8.86-5.91,15-5.91
	c3.04-0.02,6.03,0.74,8.68,2.21c2.42,1.23,4.37,3.22,5.55,5.67h0.19l1.09-6.52h18.25l-4.9,25.84l-4.32,25.74h-18.38l1.18-6.53h-0.18
	c-4,4.97-10,7.9-16.38,8C601.46,106.53,597.38,104.92,594.43,101.68z M615.82,91.84c2.48,0.06,4.86-0.96,6.53-2.79
	c1.74-1.87,3.01-4.13,3.72-6.58c0.7-2.19,1.08-4.47,1.13-6.77c0-5.89-2.35-8.83-7.06-8.84c-2.43-0.07-4.78,0.87-6.48,2.6
	c-1.72,1.77-2.98,3.93-3.68,6.29c-0.73,2.35-1.11,4.79-1.12,7.25C608.86,88.89,611.18,91.84,615.82,91.84z"/>
<linearGradient id="SVGID_00000140711325239392776710000001195655337497508280_" gradientUnits="userSpaceOnUse" x1="682.665" y1="989.6458" x2="682.665" y2="1042.61" gradientTransform="matrix(1 0 0 1 -11.93 -937.47)">
	<stop  offset="0" style="stop-color:#00ADEE"/>
	<stop  offset="0.81" style="stop-color:#1B75BB"/>
</linearGradient>
<path style="fill:url(#SVGID_00000140711325239392776710000001195655337497508280_);" d="M653.2,80.53l4.52-27h18.25l-1.67,7.69
	h0.19c1.61-2.6,3.79-4.8,6.38-6.44c3.05-1.83,6.56-2.73,10.11-2.59c0.67-0.02,1.34,0.05,2,0.19l-3.18,17.65
	c-1.46-0.28-2.93-0.44-4.41-0.48c-8.38,0-13.32,4.2-14.82,12.59l-0.59,3l-3.34,20h-18.15L653.2,80.53z"/>
<linearGradient id="SVGID_00000060721566199899133900000009388655593489362853_" gradientUnits="userSpaceOnUse" x1="54.37" y1="963.91" x2="101.21" y2="963.91" gradientTransform="matrix(1 0 0 1 0 -934)">
	<stop  offset="0.37" style="stop-color:#00ADEE"/>
	<stop  offset="0.46" style="stop-color:#079FE1"/>
	<stop  offset="0.62" style="stop-color:#1288CC"/>
	<stop  offset="0.78" style="stop-color:#197ABF"/>
	<stop  offset="0.91" style="stop-color:#1B75BB"/>
</linearGradient>
<polygon style="fill:url(#SVGID_00000060721566199899133900000009388655593489362853_);" points="69.71,16.27 54.37,43.55 
	86.1,43.55 101.21,16.27 "/>
<polygon class="st21" points="104.88,21.94 95.82,38.05 114.56,38.05 123.48,21.94 "/>
<linearGradient id="SVGID_00000130642431621352237900000001091013773752891035_" gradientUnits="userSpaceOnUse" x1="142.9486" y1="974.5373" x2="71.6386" y2="1012.3673" gradientTransform="matrix(1 0 0 1 0 -934)">
	<stop  offset="0.37" style="stop-color:#00ADEE"/>
	<stop  offset="0.46" style="stop-color:#079FE1"/>
	<stop  offset="0.62" style="stop-color:#1288CC"/>
	<stop  offset="0.78" style="stop-color:#197ABF"/>
	<stop  offset="0.91" style="stop-color:#1B75BB"/>
</linearGradient>
<polygon style="fill:url(#SVGID_00000130642431621352237900000001091013773752891035_);" points="117.88,44.2 86.58,44.44 
	102.34,71.98 133.52,71.54 "/>
<polygon class="st21" points="130.43,77.54 111.95,77.68 121.26,93.94 139.67,93.68 "/>
<linearGradient id="SVGID_00000054252682171825162190000016632248401994152126_" gradientUnits="userSpaceOnUse" x1="85.74" y1="1033.9399" x2="117.57" y2="1033.9399" gradientTransform="matrix(1 0 0 1 0 -934)">
	<stop  offset="0.37" style="stop-color:#00ADEE"/>
	<stop  offset="0.46" style="stop-color:#079FE1"/>
	<stop  offset="0.62" style="stop-color:#1288CC"/>
	<stop  offset="0.78" style="stop-color:#197ABF"/>
	<stop  offset="0.91" style="stop-color:#1B75BB"/>
</linearGradient>
<polygon style="fill:url(#SVGID_00000054252682171825162190000016632248401994152126_);" points="117.57,99.88 101.81,72.84 
	85.74,100.2 101.62,127.04 "/>
<polygon class="st21" points="94.88,127.33 85.57,111.37 76.08,127.52 85.45,143.37 "/>
<linearGradient id="SVGID_00000026854002297532809430000014347296694953664438_" gradientUnits="userSpaceOnUse" x1="37.6" y1="1047.535" x2="84.73" y2="1047.535" gradientTransform="matrix(1 0 0 1 0 -934)">
	<stop  offset="0.37" style="stop-color:#00ADEE"/>
	<stop  offset="0.46" style="stop-color:#079FE1"/>
	<stop  offset="0.62" style="stop-color:#1288CC"/>
	<stop  offset="0.78" style="stop-color:#197ABF"/>
	<stop  offset="0.91" style="stop-color:#1B75BB"/>
</linearGradient>
<polygon style="fill:url(#SVGID_00000026854002297532809430000014347296694953664438_);" points="69.09,127.27 84.73,100.16 
	53.01,99.8 37.6,126.92 "/>
<polygon class="st21" points="33.99,121.21 43.23,105.2 24.49,105 15.39,121 "/>
<linearGradient id="SVGID_00000022532405944755603790000009506128612394688907_" gradientUnits="userSpaceOnUse" x1="5.9" y1="1019.055" x2="52.54" y2="1019.055" gradientTransform="matrix(1 0 0 1 0 -934)">
	<stop  offset="0.37" style="stop-color:#00ADEE"/>
	<stop  offset="0.46" style="stop-color:#079FE1"/>
	<stop  offset="0.62" style="stop-color:#1288CC"/>
	<stop  offset="0.78" style="stop-color:#197ABF"/>
	<stop  offset="0.91" style="stop-color:#1B75BB"/>
</linearGradient>
<polygon style="fill:url(#SVGID_00000022532405944755603790000009506128612394688907_);" points="21.24,98.8 52.54,98.91 
	37.08,71.2 5.9,71.29 "/>
<polygon class="st21" points="9.06,65.33 27.54,65.39 18.41,49.03 0,49.09 "/>
<linearGradient id="SVGID_00000109739486257566787430000013659087470743502006_" gradientUnits="userSpaceOnUse" x1="22.18" y1="977.25" x2="54" y2="977.25" gradientTransform="matrix(1 0 0 1 0 -934)">
	<stop  offset="0.37" style="stop-color:#00ADEE"/>
	<stop  offset="0.46" style="stop-color:#079FE1"/>
	<stop  offset="0.62" style="stop-color:#1288CC"/>
	<stop  offset="0.78" style="stop-color:#197ABF"/>
	<stop  offset="0.91" style="stop-color:#1B75BB"/>
</linearGradient>
<polygon style="fill:url(#SVGID_00000109739486257566787430000013659087470743502006_);" points="22.18,43.13 37.63,70.35 54,43.17 
	38.43,16.15 "/>
<polygon class="st21" points="45.17,15.93 54.3,32 63.97,15.95 54.77,0 "/>
<circle class="st21" cx="70.66" cy="71.98" r="20.62"/>
<g class="st27">
	<path class="st28" d="M374.2,115.65h4.27l2.99,6.47l2.97-6.47h4.22l-5.35,10.34v5.1h-3.76v-5.1L374.2,115.65z"/>
	<path class="st28" d="M397.48,131.25c-4.38,0-7.94-3.28-7.94-7.92c0-4.64,3.56-7.9,7.94-7.9c4.4,0,7.9,3.26,7.9,7.9
		C405.38,127.97,401.85,131.25,397.48,131.25z M397.48,127.82c2.46,0,4.07-1.78,4.07-4.49c0-2.75-1.61-4.49-4.07-4.49
		c-2.51,0-4.09,1.74-4.09,4.49C393.38,126.03,394.97,127.82,397.48,127.82z"/>
	<path class="st28" d="M407.4,115.65h3.76v9.24c0,1.83,0.9,2.88,2.68,2.88s2.73-1.06,2.73-2.88v-9.24h3.76v9.22
		c0,4.27-2.99,6.38-6.56,6.38c-3.59,0-6.38-2.11-6.38-6.38V115.65z"/>
	<path class="st28" d="M429.29,115.65c3.78,0,5.68,2.18,5.68,4.86c0,1.94-1.06,3.76-3.43,4.47l3.56,6.12h-4.25l-3.21-5.83h-0.9v5.83
		h-3.76v-15.45H429.29z M429.07,118.77h-2.33v3.83h2.33c1.41,0,2.07-0.73,2.07-1.94C431.14,119.52,430.48,118.77,429.07,118.77z"/>
	<path class="st28" d="M449.29,131.25c-4.38,0-7.94-3.28-7.94-7.92c0-4.64,3.56-7.9,7.94-7.9c4.4,0,7.9,3.26,7.9,7.9
		C457.18,127.97,453.66,131.25,449.29,131.25z M449.29,127.82c2.46,0,4.07-1.78,4.07-4.49c0-2.75-1.61-4.49-4.07-4.49
		c-2.51,0-4.09,1.74-4.09,4.49C445.19,126.03,446.78,127.82,449.29,127.82z"/>
	<path class="st28" d="M473.09,115.65v15.45h-3.76l-6.29-9.53v9.53h-3.76v-15.45h3.76l6.29,9.57v-9.57H473.09z"/>
	<path class="st28" d="M485.28,118.66h-5.7v3.12h5.04v2.9h-5.04v3.39h5.7v3.01h-9.46v-15.45h9.46V118.66z"/>
	<path class="st28" d="M497.97,131.25c-3.32,0-5.92-1.65-6.03-4.78h4c0.11,1.19,0.86,1.76,1.91,1.76c1.1,0,1.8-0.55,1.8-1.45
		c0-2.86-7.72-1.32-7.68-6.8c0-2.93,2.4-4.55,5.63-4.55c3.37,0,5.63,1.67,5.79,4.62h-4.07c-0.07-0.99-0.77-1.58-1.78-1.61
		c-0.9-0.02-1.58,0.44-1.58,1.41c0,2.68,7.64,1.47,7.64,6.64C503.6,129.09,501.58,131.25,497.97,131.25z"/>
	<path class="st28" d="M505.08,115.65h11.95v3.01h-4.09v12.43h-3.76v-12.43h-4.09V115.65z"/>
	<path class="st28" d="M526.22,131.25c-4.38,0-7.94-3.28-7.94-7.92c0-4.64,3.56-7.9,7.94-7.9c4.4,0,7.9,3.26,7.9,7.9
		C534.12,127.97,530.6,131.25,526.22,131.25z M526.22,127.82c2.46,0,4.07-1.78,4.07-4.49c0-2.75-1.61-4.49-4.07-4.49
		c-2.51,0-4.09,1.74-4.09,4.49C522.13,126.03,523.71,127.82,526.22,127.82z"/>
	<path class="st28" d="M542.3,125.55h-2.33v5.54h-3.76v-15.45h6.09c3.79,0,5.68,2.13,5.68,4.97
		C547.98,123.17,546.24,125.55,542.3,125.55z M542.01,122.56c1.5,0,2.13-0.75,2.13-1.94s-0.64-1.94-2.13-1.94h-2.05v3.87H542.01z"/>
	<path class="st28" d="M560.19,131.25c-3.32,0-5.92-1.65-6.03-4.78h4c0.11,1.19,0.86,1.76,1.91,1.76c1.1,0,1.8-0.55,1.8-1.45
		c0-2.86-7.72-1.32-7.68-6.8c0-2.93,2.4-4.55,5.63-4.55c3.37,0,5.63,1.67,5.79,4.62h-4.07c-0.07-0.99-0.77-1.58-1.78-1.61
		c-0.9-0.02-1.58,0.44-1.58,1.41c0,2.68,7.63,1.47,7.63,6.64C565.82,129.09,563.79,131.25,560.19,131.25z"/>
	<path class="st28" d="M575.43,131.25c-4.38,0-7.94-3.28-7.94-7.92c0-4.64,3.56-7.9,7.94-7.9c4.4,0,7.9,3.26,7.9,7.9
		C583.33,127.97,579.81,131.25,575.43,131.25z M575.43,127.82c2.46,0,4.07-1.78,4.07-4.49c0-2.75-1.61-4.49-4.07-4.49
		c-2.51,0-4.09,1.74-4.09,4.49C571.34,126.03,572.92,127.82,575.43,127.82z"/>
	<path class="st28" d="M589.18,115.65v12.54h4.93v2.9h-8.69v-15.45H589.18z"/>
	<path class="st28" d="M605.53,128.37h-5.76l-0.92,2.73h-3.94l5.59-15.45h4.36l5.59,15.45h-3.98L605.53,128.37z M602.65,119.81
		l-1.89,5.66h3.81L602.65,119.81z"/>
	<path class="st28" d="M618.44,115.65c3.78,0,5.68,2.18,5.68,4.86c0,1.94-1.06,3.76-3.43,4.47l3.56,6.12H620l-3.21-5.83h-0.9v5.83
		h-3.76v-15.45H618.44z M618.22,118.77h-2.33v3.83h2.33c1.41,0,2.07-0.73,2.07-1.94C620.29,119.52,619.63,118.77,618.22,118.77z"/>
	<path class="st28" d="M636.72,131.25c-3.32,0-5.92-1.65-6.03-4.78h4c0.11,1.19,0.86,1.76,1.91,1.76c1.1,0,1.8-0.55,1.8-1.45
		c0-2.86-7.72-1.32-7.68-6.8c0-2.93,2.4-4.55,5.63-4.55c3.37,0,5.63,1.67,5.79,4.62h-4.07c-0.07-0.99-0.77-1.58-1.78-1.61
		c-0.9-0.02-1.58,0.44-1.58,1.41c0,2.68,7.63,1.47,7.63,6.64C642.36,129.09,640.33,131.25,636.72,131.25z"/>
	<path class="st28" d="M654.28,124.73h-5.85v6.36h-3.76v-15.45h3.76v6.05h5.85v-6.05h3.76v15.45h-3.76V124.73z"/>
	<path class="st28" d="M668.05,131.25c-4.38,0-7.94-3.28-7.94-7.92c0-4.64,3.56-7.9,7.94-7.9c4.4,0,7.9,3.26,7.9,7.9
		C675.95,127.97,672.43,131.25,668.05,131.25z M668.05,127.82c2.46,0,4.07-1.78,4.07-4.49c0-2.75-1.61-4.49-4.07-4.49
		c-2.51,0-4.09,1.74-4.09,4.49C663.96,126.03,665.54,127.82,668.05,127.82z"/>
	<path class="st28" d="M684.13,125.55h-2.33v5.54h-3.76v-15.45h6.09c3.79,0,5.68,2.13,5.68,4.97
		C689.81,123.17,688.07,125.55,684.13,125.55z M683.85,122.56c1.5,0,2.13-0.75,2.13-1.94s-0.64-1.94-2.13-1.94h-2.05v3.87H683.85z"
		/>
</g>
</svg>
