<?xml version="1.0" encoding="utf-8"?>
<!-- Generator: Adobe Illustrator 23.1.0, SVG Export Plug-In . SVG Version: 6.00 Build 0)  -->
<svg version="1.1" id="Layer_1" xmlns="http://www.w3.org/2000/svg" xmlns:xlink="http://www.w3.org/1999/xlink" x="0px" y="0px"
	 viewBox="0 0 32 32" style="enable-background:new 0 0 32 32;" xml:space="preserve">
<style type="text/css">
	.st0{fill:#080808;}
	.st1{fill:#F0EDE8;}
	.st2{fill:#D4A853;}
</style>
<g>
	<path class="st0" d="M27.53,32H4.47C2,32,0,30,0,27.53V4.47C0,2,2,0,4.47,0h23.06C30,0,32,2,32,4.47v23.06C32,30,30,32,27.53,32z"
		/>
	<g>
		<path class="st1" d="M3.35,19.84l5.15-7.68h3.34l5.2,7.68h-3.3l-4.45-6.88h1.79l-4.42,6.88H3.35z M6.03,18.68v-1.8h8.21v1.8H6.03z
			"/>
		<path class="st1" d="M19.1,19.84l-4.66-7.68h3.38l3.97,7.38h-1.22l3.97-7.38h3.34l-4.61,7.68H19.1z"/>
		<path class="st2" d="M28.65,18.03v1.81h-3.05v-1.81H28.65z"/>
	</g>
</g>
</svg>
